DataType=double
version=3
OpenSimVersion=4.5
endheader
time	ground_force_1_vx	ground_force_1_vy	ground_force_1_vz	ground_force_1_px	ground_force_1_py	ground_force_1_pz	ground_moment_1_mx	ground_moment_1_my	ground_moment_1_mz	ground_force_2_vx	ground_force_2_vy	ground_force_2_vz	ground_force_2_px	ground_force_2_py	ground_force_2_pz	ground_moment_2_mx	ground_moment_2_my	ground_moment_2_mz
3	-61.87405552	663.3490163	56.10786553	0.8076506260422924	0	0.254876446341871	-96.4649507	-7.961851313	45.15286749	0	0	0	0.8089	0	0.745900015	0	0	0
3.005	-60.22429866	657.1299379	54.83974962	0.8076506260422924	0	0.254876446341871	-95.51104927999999	-7.750047851	43.06034842	0	0	0	0.8089	0	0.745900015	0	0	0
3.01	-58.58947731	651.7474568	53.39953498	0.8076506260422924	0	0.254876446341871	-94.73264856	-7.498479474	41.00185272	0	0	0	0.8089	0	0.745900015	0	0	0
3.015	-57.03488541	647.0445684	51.6738446	0.8076506260422924	0	0.254876446341871	-94.10584665	-7.190926909	38.99041569	0	0	0	0.8089	0	0.745900015	0	0	0
3.02	-55.2659567	642.8721388	49.88901127	0.8076506260422924	0	0.254876446341871	-93.61024092	-6.8462961	36.78499186	0	0	0	0.8089	0	0.745900015	0	0	0
3.025	-53.03831597	639.1962712	48.34492257	0.8076506260422924	0	0.254876446341871	-93.22926586	-6.492180425	34.28220999	0	0	0	0.8089	0	0.745900015	0	0	0
3.03	-50.55067417	636.0347279	47.08131741	0.8076506260422924	0	0.254876446341871	-92.9465615	-6.132666659	31.64398174	0	0	0	0.8089	0	0.745900015	0	0	0
3.035	-48.14390754	633.4064562999999	45.91641024	0.8076506260422924	0	0.254876446341871	-92.74567398000001	-5.748695212	28.98111887	0	0	0	0.8089	0	0.745900015	0	0	0
3.04	-45.77061742	631.2962126	44.76226364	0.8076506260422924	0	0.254876446341871	-92.62136131	-5.329253958	26.15677933	0	0	0	0.8089	0	0.745900015	0	0	0
3.045	-43.11566615	629.6106264	43.71697567	0.8076506260422924	0	0.254876446341871	-92.56859826	-4.892312989	23.02825148	0	0	0	0.8089	0	0.745900015	0	0	0
3.05	-40.19541432	628.2362482	42.90736194	0.8076506260422924	0	0.254876446341871	-92.57539251999999	-4.449933303	19.69497101	0	0	0	0.8089	0	0.745900015	0	0	0
3.055	-37.39604552	627.1874433	42.31020228	0.8076506260422924	0	0.254876446341871	-92.6279158	-4.007231071	16.36821376	0	0	0	0.8089	0	0.745900015	0	0	0
3.06	-34.88406052	626.5038293	41.77693539	0.8076506260422924	0	0.254876446341871	-92.72655777999999	-3.563544979	13.10260138	0	0	0	0.8089	0	0.745900015	0	0	0
3.065	-32.40292346	626.0415805	41.1571227	0.8076506260422924	0	0.254876446341871	-92.87559	-3.115678654	9.779425364	0	0	0	0.8089	0	0.745900015	0	0	0
3.07	-29.79736263	625.6264184	40.4365799	0.8076506260422924	0	0.254876446341871	-93.07246440999999	-2.677885666	6.291345398	0	0	0	0.8089	0	0.745900015	0	0	0
3.075	-27.27987187	625.3445459	39.73338014	0.8076506260422924	0	0.254876446341871	-93.30754853000001	-2.262253871	2.72795752	0	0	0	0.8089	0	0.745900015	0	0	0
3.08	-25.0303072	625.4209397	39.15309551	0.8076506260422924	0	0.254876446341871	-93.57456136	-1.874801165	-0.71693064	0	0	0	0.8089	0	0.745900015	0	0	0
3.085	-22.91702755	625.8775776	38.67101204	0.8076506260422924	0	0.254876446341871	-93.88396813	-1.511726044	-4.029455899	0	0	0	0.8089	0	0.745900015	0	0	0
3.09	-20.73132868	626.608752	38.13216153	0.8076506260422924	0	0.254876446341871	-94.24365114	-1.141453109	-7.392538653	0	0	0	0.8089	0	0.745900015	0	0	0
3.095	-18.46078007	627.6294641	37.47731595	0.8076506260422924	0	0.254876446341871	-94.66008351000001	-0.75395609	-10.89471045	0	0	0	0.8089	0	0.745900015	0	0	0
3.1	-16.19737108	629.0929913	36.80390362	0.8076506260422924	0	0.254876446341871	-95.12222473999999	-0.36834898	-14.39217822	0	0	0	0.8089	0	0.745900015	0	0	0
3.105	-13.96609188	631.0119263	36.25715145	0.8076506260422924	0	0.254876446341871	-95.61376168	0.027043387	-17.78157192	0	0	0	0.8089	0	0.745900015	0	0	0
3.11	-11.68037027	633.1459389	35.85143428	0.8076506260422924	0	0.254876446341871	-96.12431056	0.440183411	-21.19185064	0	0	0	0.8089	0	0.745900015	0	0	0
3.115	-9.193939073999999	635.2834927	35.46750035	0.8076506260422924	0	0.254876446341871	-96.64974341	0.887266903	-24.75177271	0	0	0	0.8089	0	0.745900015	0	0	0
3.12	-6.483791914	637.4792208	35.01042997	0.8076506260422924	0	0.254876446341871	-97.17787482	1.374364513	-28.41315542	0	0	0	0.8089	0	0.745900015	0	0	0
3.125	-3.686837225	639.7896286	34.55000961	0.8076506260422924	0	0.254876446341871	-97.68866764000001	1.881415109	-32.05436065	0	0	0	0.8089	0	0.745900015	0	0	0
3.13	-0.8700634229999999	642.0490533	34.25284798	0.8076506260422924	0	0.254876446341871	-98.16507294	2.402841577	-35.65555724	0	0	0	0.8089	0	0.745900015	0	0	0
3.135	2.082278433	644.0872269	34.19511721	0.8076506260422924	0	0.254876446341871	-98.60159806	2.934037889	-39.27736434	0	0	0	0.8089	0	0.745900015	0	0	0
3.14	5.234684633	645.9256145000001	34.29417118	0.8076506260422924	0	0.254876446341871	-99.00796981000001	3.488318299	-42.9928973	0	0	0	0.8089	0	0.745900015	0	0	0
3.145	8.493103844	647.6540948000001	34.41448928	0.8076506260422924	0	0.254876446341871	-99.39444288999999	4.087936753	-46.78861419	0	0	0	0.8089	0	0.745900015	0	0	0
3.15	11.77410351	649.3003459	34.5569323	0.8076506260422924	0	0.254876446341871	-99.77046919	4.714620781	-50.59744835	0	0	0	0.8089	0	0.745900015	0	0	0
3.155	15.11240675	650.8731702	34.85801195	0.8076506260422924	0	0.254876446341871	-100.1474824	5.347122732	-54.40731579	0	0	0	0.8089	0	0.745900015	0	0	0
3.16	18.53448247	652.4744162	35.39514549	0.8076506260422924	0	0.254876446341871	-100.5434956	5.984351918	-58.28678051	0	0	0	0.8089	0	0.745900015	0	0	0
3.165	21.96827897	654.2722288	36.04996596	0.8076506260422924	0	0.254876446341871	-100.9809414	6.618645692	-62.29184754	0	0	0	0.8089	0	0.745900015	0	0	0
3.17	25.33237409	656.383998	36.61198818	0.8076506260422924	0	0.254876446341871	-101.4712142	7.255200175	-66.4086312	0	0	0	0.8089	0	0.745900015	0	0	0
3.175	28.64259802	658.8461906	37.03514051	0.8076506260422924	0	0.254876446341871	-102.0156646	7.894162666	-70.60041661	0	0	0	0.8089	0	0.745900015	0	0	0
3.18	31.95317714	661.6822963	37.44446074	0.8076506260422924	0	0.254876446341871	-102.6065198	8.517527048	-74.86064664	0	0	0	0.8089	0	0.745900015	0	0	0
3.185	35.26613076	664.8437283	37.90808981	0.8076506260422924	0	0.254876446341871	-103.2320187	9.137340853	-79.18243216	0	0	0	0.8089	0	0.745900015	0	0	0
3.19	38.55813118	668.2062618	38.30672291	0.8076506260422924	0	0.254876446341871	-103.8798679	9.773801294	-83.52499299	0	0	0	0.8089	0	0.745900015	0	0	0
3.195	41.85581976	671.6816308	38.49404044	0.8076506260422924	0	0.254876446341871	-104.5372292	10.43177109	-87.88618062	0	0	0	0.8089	0	0.745900015	0	0	0
3.2	45.22799164	675.2233149	38.47848872	0.8076506260422924	0	0.254876446341871	-105.1852608	11.11840132	-92.30784293000001	0	0	0	0.8089	0	0.745900015	0	0	0
3.205	48.70910417	678.6939555	38.41037109	0.8076506260422924	0	0.254876446341871	-105.8027928	11.82592136	-96.77157058	0	0	0	0.8089	0	0.745900015	0	0	0
3.21	52.25226373	681.9089004	38.41035986	0.8076506260422924	0	0.254876446341871	-106.3726496	12.54501911	-101.1756442	0	0	0	0.8089	0	0.745900015	0	0	0
3.215	55.77967116	684.8456277	38.45677676	0.8076506260422924	0	0.254876446341871	-106.8833306	13.28593907	-105.4867629	0	0	0	0.8089	0	0.745900015	0	0	0
3.22	59.33382338	687.5252138	38.48361141	0.8076506260422924	0	0.254876446341871	-107.3360746	14.04801881	-109.7499476	0	0	0	0.8089	0	0.745900015	0	0	0
3.225	63.04207434	689.8813731	38.47086062	0.8076506260422924	0	0.254876446341871	-107.7284881	14.83168683	-113.9772814	0	0	0	0.8089	0	0.745900015	0	0	0
3.23	66.90140789	691.7874654	38.48594554	0.8076506260422924	0	0.254876446341871	-108.0539639	15.64604282	-118.110829	0	0	0	0.8089	0	0.745900015	0	0	0
3.235	70.78378637	693.2205675	38.62465175	0.8076506260422924	0	0.254876446341871	-108.3116027	16.49120803	-122.0942914	0	0	0	0.8089	0	0.745900015	0	0	0
3.24	74.67737112	694.2154885	38.86415014	0.8076506260422924	0	0.254876446341871	-108.4974405	17.37318163	-125.9198223	0	0	0	0.8089	0	0.745900015	0	0	0
3.245	78.71624469	694.6789487	39.11154086	0.8076506260422924	0	0.254876446341871	-108.6134824	18.30794245	-129.6450053	0	0	0	0.8089	0	0.745900015	0	0	0
3.25	82.96239511	694.4917374	39.2662376	0.8076506260422924	0	0.254876446341871	-108.6446501	19.2831218	-133.305892	0	0	0	0.8089	0	0.745900015	0	0	0
3.255	87.31937342000001	693.5551626	39.34077077	0.8076506260422924	0	0.254876446341871	-108.5699493	20.28918142	-136.8424487	0	0	0	0.8089	0	0.745900015	0	0	0
3.26	91.69663958	691.8120249999999	39.38628701	0.8076506260422924	0	0.254876446341871	-108.3673409	21.29349898	-140.1405049	0	0	0	0.8089	0	0.745900015	0	0	0
3.265	96.09801234	689.1823391	39.39335785	0.8076506260422924	0	0.254876446341871	-108.0247129	22.26247303	-143.2157754	0	0	0	0.8089	0	0.745900015	0	0	0
3.27	100.5841786	685.5155918	39.2738653	0.8076506260422924	0	0.254876446341871	-107.538196	23.19478724	-146.1465961	0	0	0	0.8089	0	0.745900015	0	0	0
3.275	105.1458368	680.7086749	38.92614724	0.8076506260422924	0	0.254876446341871	-106.8935795	24.06971481	-148.8935513	0	0	0	0.8089	0	0.745900015	0	0	0
3.28	109.6452527	674.6869412	38.37482923	0.8076506260422924	0	0.254876446341871	-106.0715509	24.8763707	-151.2895432	0	0	0	0.8089	0	0.745900015	0	0	0
3.285	113.9147854	667.3753283	37.69771119	0.8076506260422924	0	0.254876446341871	-105.0424744	25.60865401	-153.2228976	4.969690525	20.09936248	-0.199523503	0.8089	0	0.745900015	4.249612533	-1.322428843	3.522779278
3.29	117.9038928	658.5663684	36.93009356	0.8076506260422924	0	0.254876446341871	-103.7822237	26.24537443	-154.7130362	10.16851272	40.13138003	2.012160846	0.8089	0	0.745900015	8.508090860999999	-2.651179602	6.564127229
3.295	121.6474275	648.0151092	36.00142215	0.8076506260422924	0	0.254876446341871	-102.2581229	26.78246021	-155.7453373	15.76876562	68.50072772999999	5.848870037	0.8089	0	0.745900015	14.41213926	-4.246432938	10.87258498
3.3	125.0360662	635.517479	34.82058637	0.8076506260422924	0	0.254876446341871	-100.415883	27.21421423	-156.1528869	20.29191173	105.1471907	11.51610353	0.8089	0	0.745900015	21.93617255	-5.794004984	16.38681984
3.305	127.7770216	620.7448235000001	33.4270188	0.8076506260422924	0	0.254876446341871	-98.19734553000001	27.51005829	-155.7248284	21.90579868	148.5372915	18.60380518	0.8089	0	0.745900015	30.80846994	-6.886729314	22.68883566
3.31	129.664662	603.2762921999999	31.9171002	0.8076506260422924	0	0.254876446341871	-95.53489432000001	27.64330256	-154.3168806	19.08113565	196.1965606	26.15801116	0.8089	0	0.745900015	40.53643182	-7.186683793	29.38304173
3.315	130.6507046	582.7363911	30.35163169	0.8076506260422924	0	0.254876446341871	-92.37577804999999	27.56780216	-151.8705329	11.50650152	245.3523477	33.01256877	0.8089	0	0.745900015	50.52186851	-6.562972394	36.29228447
3.32	130.638919	558.9465004	28.6849515	0.8076506260422924	0	0.254876446341871	-88.68694556	27.23075452	-148.2843026	0.244321119	293.3601168	38.21194129	0.8089	0	0.745900015	60.20153141	-5.077783487	43.1655834
3.325	129.3692328	531.9312905	26.79903043	0.8076506260422924	0	0.254876446341871	-84.44857394	26.61803934	-143.4090175	-12.78657287	338.1250117	41.16206655	0.8089	0	0.745900015	69.17100031	-2.986670492	49.56672905
3.33	126.5891988	501.8090811	24.67309184	0.8076506260422924	0	0.254876446341871	-79.67901238	25.70141534	-137.2044133	-25.58164242	378.6877374	41.62004347	0.8089	0	0.745900015	77.21343529000001	-0.588159997	55.25366937
